Coordinates
version=1
nRows=11
nColumns=40
inDegrees=yes

Units are S.I. units (second, meters, Newtons, ...)
Angles are in degrees.

endheader
time	pelvis_tilt	pelvis_list	pelvis_rotation	pelvis_tx	pelvis_ty	pelvis_tz	hip_flexion_r	hip_adduction_r	hip_rotation_r	knee_angle_r	knee_angle_r_beta	ankle_angle_r	subtalar_angle_r	mtp_angle_r	hip_flexion_l	hip_adduction_l	hip_rotation_l	knee_angle_l	knee_angle_l_beta	ankle_angle_l	subtalar_angle_l	mtp_angle_l	lumbar_extension	lumbar_bending	lumbar_rotation	arm_flex_r	arm_add_r	arm_rot_r	elbow_flex_r	pro_sup_r	wrist_flex_r	wrist_dev_r	arm_flex_l	arm_add_l	arm_rot_l	elbow_flex_l	pro_sup_l	wrist_flex_l	wrist_dev_l
     17.08500000	     -6.18245755	     -5.59862157	     -1.65635230	      0.78215075	      0.93199137	      0.43026878	     34.72387798	     -3.22738941	     -6.67172211	     52.10372171	     52.10372171	      2.58425421	    -12.94545753	     -0.65675489	     14.76556722	     -6.21200467	     -7.92510153	     20.05251052	     20.05251052	     13.56853352	     -7.69198682	     -3.08827825	    -10.65788071	      6.10567913	      0.77171105	     -1.54767065	    -12.87933121	     -6.36436303	     24.07623399	     46.87074655	      0.00000000	      0.00000000	     23.61401033	    -15.04536790	     -1.36145104	     44.13759082	     46.51998139	      0.00000000	      0.00000000
     17.09771429	     -6.23521612	     -5.53408396	     -1.90325420	      0.78224763	      0.93174492	      0.43040208	     34.70108212	     -3.11010953	     -6.84225167	     48.99166778	     48.99166778	      2.14928323	    -11.77771569	     -0.34821241	     14.23273164	     -6.14829647	     -8.10502431	     19.89138864	     19.89138864	     13.86734369	     -7.73979438	     -3.11034878	    -10.70593017	      6.13640912	      0.87455912	     -3.19718922	    -13.17315987	     -6.70641352	     23.30242462	     46.91867179	      0.00000000	      0.00000000	     24.50949190	    -15.28921458	     -1.63837944	     44.94587220	     46.56887796	      0.00000000	      0.00000000
     17.11042857	     -6.39563848	     -5.45845695	     -2.17007189	      0.78234546	      0.93128580	      0.43069196	     34.66410579	     -2.96720230	     -7.08061715	     45.60012123	     45.60012123	      1.65165307	    -10.53037507	     -0.02194577	     13.83015256	     -6.08847695	     -8.29140605	     19.75995418	     19.75995418	     14.16931220	     -7.80275817	     -3.13917527	    -10.61568486	      6.15163658	      0.85391668	     -4.72840120	    -13.44704108	     -6.98917578	     22.68520671	     46.95651362	      0.00000000	      0.00000000	     25.20277930	    -15.60707773	     -1.93609011	     45.82163372	     46.61635341	      0.00000000	      0.00000000
     17.12314286	     -6.54480864	     -5.37424771	     -2.43492781	      0.78248155	      0.93076079	      0.43109340	     34.45319878	     -2.81607447	     -7.41926316	     41.92672644	     41.92672644	      1.22485981	     -9.07093591	      0.22154256	     13.41242847	     -6.01917492	     -8.46081917	     19.62653409	     19.62653409	     14.51151490	     -7.85556273	     -3.16431079	    -10.58165927	      6.15237792	      0.97020692	     -6.20980797	    -13.72956686	     -7.29705343	     22.15489872	     46.99387157	      0.00000000	      0.00000000	     25.79694209	    -15.80634175	     -2.27859100	     46.93210946	     46.66884815	      0.00000000	      0.00000000
     17.13585714	     -6.64214802	     -5.21349600	     -2.77442599	      0.78284455	      0.93024067	      0.43171696	     33.93277439	     -2.70212009	     -7.92081042	     37.75315163	     37.75315163	     -0.33984967	     -7.70332279	     -2.79841342	     12.92180254	     -5.90602943	     -8.82172047	     19.54708358	     19.54708358	     15.04782433	     -7.71000998	     -2.66336284	    -10.67311490	      6.05758893	      1.11171173	     -7.25820021	    -13.27937593	    -14.20545844	     21.40079625	     47.57800601	      0.00000000	      0.00000000	     25.53868253	    -15.87394736	     -4.06603767	     50.41841635	     46.92438905	      0.00000000	      0.00000000
     17.14857143	     -6.80461057	     -5.14438473	     -3.04905124	      0.78321552	      0.92959279	      0.43244808	     33.43569765	     -2.44012174	     -8.47675345	     33.65527112	     33.65527112	     -0.67507264	     -5.85516776	     -2.23807476	     12.50594056	     -5.86504599	     -8.97996390	     19.42379182	     19.42379182	     15.35104704	     -7.83288975	     -2.73089464	    -10.58478892	      6.06816259	      1.22260130	     -8.55227654	    -13.56663375	    -14.32565572	     21.04815871	     47.58858819	      0.00000000	      0.00000000	     25.99355468	    -16.06578813	     -4.29205462	     51.33035776	     46.96112924	      0.00000000	      0.00000000
     17.16128571	     -6.95934304	     -5.05519757	     -3.35571849	      0.78378427	      0.92891243	      0.43337460	     32.78186140	     -2.15133948	     -9.13703831	     29.42582852	     29.42582852	     -1.00232820	     -3.65231161	     -1.72544784	     12.02259659	     -5.80739865	     -9.17015996	     19.22696082	     19.22696082	     15.65356420	     -7.92870557	     -2.77398439	    -10.48264739	      6.05839867	      1.43581582	     -9.84060045	    -13.74623995	    -14.48424048	     20.88105121	     47.59321293	      0.00000000	      0.00000000	     26.31509651	    -16.14931972	     -4.59775859	     52.60494242	     47.00787746	      0.00000000	      0.00000000
     17.17400000	     -7.10829941	     -4.83882512	     -3.65783879	      0.78454345	      0.92805232	      0.43442229	     32.06450015	     -1.98554113	     -9.96773126	     25.28128606	     25.28128606	     -1.29339138	     -1.06363588	     -1.52114335	     11.50615860	     -5.61048921	     -9.40368371	     18.99959315	     18.99959315	     15.97169226	     -8.02111603	     -2.78149277	    -10.45763463	      5.87280397	      1.36395342	    -11.21406928	    -13.81771184	    -15.09018526	     22.03606430	     47.55196295	      0.00000000	      0.00000000	     25.67249534	    -16.41209416	     -5.73517702	     55.88739198	     47.14602933	      0.00000000	      0.00000000
     17.18671429	     -7.17043731	     -4.71864136	     -3.92033526	      0.78557497	      0.92728414	      0.43572499	     31.13985854	     -1.61204313	    -10.72297173	     21.22179503	     21.22179503	     -1.38855763	      1.19652223	     -0.56686041	     10.87715808	     -5.52360643	     -9.59457027	     18.76293157	     18.76293157	     16.25941849	     -8.10564978	     -2.86740090	    -10.41231821	      5.78101398	      1.61928139	    -12.24375248	    -13.93437207	    -15.18820762	     21.89490049	     47.54745846	      0.00000000	      0.00000000	     25.87928122	    -16.43811817	     -6.03099750	     56.97787637	     47.18898277	      0.00000000	      0.00000000
     17.19942857	     -7.42627532	     -4.51628326	     -4.18737905	      0.78663505	      0.92610298	      0.43716558	     30.49493684	     -1.24755475	    -11.23988828	     17.55888399	     17.55888399	     -1.57125575	      3.07439000	      0.51411985	     10.44245771	     -5.35423630	     -9.75136272	     18.48974668	     18.48974668	     16.55849639	     -8.18207708	     -2.97123879	    -10.08137543	      5.64939329	      1.75193683	    -13.08100668	    -13.88799019	    -15.25731690	     21.85001408	     47.54112905	      0.00000000	      0.00000000	     25.92703451	    -16.43932660	     -6.22699021	     57.86424506	     47.21879780	      0.00000000	      0.00000000
     17.21214286	     -7.42463366	     -4.32968876	     -4.40995637	      0.78811484	      0.92524326	      0.43864099	     29.76445457	     -1.04267019	    -12.30600185	     14.80658612	     14.80658612	     -0.50527228	      5.77535539	      4.30572984	      9.63862677	     -5.16212019	     -9.87081464	     18.08213719	     18.08213719	     16.74672443	     -8.33694277	     -3.29021187	    -10.14249076	      5.49699381	      1.55477735	    -14.08311596	    -13.97405970	    -15.46730453	     23.12678768	     47.44145999	      0.00000000	      0.00000000	     24.97642929	    -16.63555972	     -7.33639907	     60.93050727	     47.35112025	      0.00000000	      0.00000000
